External Loads File
version=1
nRows=86
nColumns=13
Range=5.000000e-03-10 seconds
endheader
time 	forceRightX 	forceRightY 	forceRightZ 	pointRightX 	pointRightY 	pointRightZ 	forceLeftX 	forceLeftY 	forceLeftZ 	pointLeftX 	pointLeftY 	pointLeftZ 		
0.005000 77.852926 150.279385 -0.000000 0.117078 0.192751 -0.147019 17.010230 101.074986 -0.000000 0.335676 0.462007 -0.381737
0.010000 78.599015 150.492589 -0.000000 0.117089 0.192755 -0.147011 17.993329 101.517340 -0.000000 0.335677 0.462010 -0.381730
0.015000 79.195339 150.659946 -0.000000 0.117110 0.192746 -0.147014 18.905939 101.963074 -0.000000 0.335673 0.462015 -0.381730
0.020000 79.710074 150.694141 -0.000000 0.117036 0.192756 -0.146946 19.699394 102.334329 -0.000000 0.335648 0.462022 -0.381733
0.025000 80.191219 150.569185 -0.000000 0.117035 0.192711 -0.146943 20.341538 102.582335 -0.000000 0.335631 0.462033 -0.381755
0.030000 80.428447 150.446186 -0.000000 0.117050 0.192769 -0.146933 20.650878 102.717701 -0.000000 0.335659 0.462048 -0.381718
0.035000 80.405290 150.396955 -0.000000 0.117064 0.192781 -0.146934 20.600217 102.748321 -0.000000 0.335657 0.462065 -0.381706
0.040000 80.577630 150.220860 -0.000000 0.117069 0.192798 -0.146946 20.501690 102.635898 -0.000000 0.335709 0.462086 -0.381710
0.045000 80.761355 150.040324 -0.000000 0.117070 0.192791 -0.146946 20.267799 102.453858 -0.000000 0.335667 0.462109 -0.381704
0.050000 81.092143 149.789770 -0.000000 0.117072 0.192794 -0.146945 20.074590 102.244683 -0.000000 0.335665 0.462136 -0.381715
0.055000 81.209275 149.649999 -0.000000 0.117091 0.192798 -0.146937 19.764644 102.101277 -0.000000 0.335662 0.462165 -0.381707
0.060000 81.305645 149.484424 -0.000000 0.117102 0.192799 -0.146931 19.542905 102.025833 -0.000000 0.335665 0.462197 -0.381710
0.065000 81.463132 149.216923 -0.000000 0.117118 0.192797 -0.146939 19.524359 102.034893 -0.000000 0.335663 0.462232 -0.381698
0.070000 81.612479 148.874661 -0.000000 0.117122 0.192808 -0.146936 19.674988 102.143516 -0.000000 0.335660 0.462270 -0.381706
0.075000 81.647190 148.530892 -0.000000 0.117135 0.192811 -0.146935 19.869595 102.331894 -0.000000 0.335661 0.462310 -0.381706
0.080000 81.705806 148.142825 -0.000000 0.117144 0.192818 -0.146925 20.127387 102.536569 -0.000000 0.335665 0.462352 -0.381702
0.085000 81.764317 147.762394 -0.000000 0.117147 0.192820 -0.146928 20.375032 102.735758 -0.000000 0.335653 0.462397 -0.381705
0.090000 81.791312 147.439111 -0.000000 0.117149 0.192810 -0.146932 20.563811 102.929175 -0.000000 0.335890 0.462444 -0.381894
0.095000 81.734261 147.219514 -0.000000 0.117157 0.192810 -0.146935 20.673705 103.133917 -0.000000 0.335875 0.462493 -0.381907
0.100000 81.630465 147.081787 -0.000000 0.117156 0.192811 -0.146931 20.793381 103.364656 -0.000000 0.335882 0.462545 -0.381918
0.105000 81.852081 146.811265 -0.000000 0.117158 0.192807 -0.146929 21.244232 103.584751 -0.000000 0.335884 0.462598 -0.381920
0.110000 81.949708 146.658900 -0.000000 0.117156 0.192817 -0.146929 21.706483 103.858556 -0.000000 0.335885 0.462654 -0.381921
0.115000 81.836380 146.680051 -0.000000 0.117155 0.192825 -0.146936 22.047556 104.184381 -0.000000 0.335885 0.462711 -0.381802
0.120000 81.983760 146.608615 -0.000000 0.117153 0.192818 -0.146945 22.508987 104.461323 -0.000000 0.335881 0.462771 -0.381799
0.125000 82.166020 146.554457 -0.000000 0.117154 0.192825 -0.146940 22.863329 104.687412 -0.000000 0.335880 0.462832 -0.381799
0.130000 82.139971 146.632615 -0.000000 0.117149 0.192827 -0.146962 22.925284 104.880091 -0.000000 0.335867 0.462894 -0.381804
0.135000 82.392466 146.556836 -0.000000 0.117134 0.192832 -0.146946 23.073266 104.962467 -0.000000 0.335877 0.462959 -0.381806
0.140000 82.464317 146.587353 -0.000000 0.117136 0.192836 -0.146948 23.010799 105.013734 -0.000000 0.335857 0.463024 -0.381803
0.145000 82.574683 146.609293 -0.000000 0.117120 0.192826 -0.146950 22.921562 105.008486 -0.000000 0.335838 0.463092 -0.381805
0.150000 82.655781 146.658084 -0.000000 0.117116 0.192832 -0.146963 22.787886 104.965906 -0.000000 0.335758 0.463160 -0.381824
0.155000 82.582126 146.792756 -0.000000 0.117105 0.192839 -0.146954 22.544288 104.908917 -0.000000 0.335768 0.463230 -0.381818
0.160000 82.854292 146.722208 -0.000000 0.117090 0.192822 -0.146963 22.566000 104.764497 -0.000000 0.335748 0.463301 -0.381820
0.165000 82.797691 146.821584 -0.000000 0.117090 0.192827 -0.146964 22.394087 104.646544 -0.000000 0.335747 0.463373 -0.381826
0.170000 82.590534 146.982191 -0.000000 0.117082 0.192828 -0.146958 22.172199 104.537534 -0.000000 0.335753 0.463446 -0.381828
0.175000 82.364694 147.115202 -0.000000 0.117070 0.192841 -0.146966 21.988080 104.425318 -0.000000 0.335741 0.463520 -0.381823
0.180000 82.304278 147.101734 -0.000000 0.117059 0.192824 -0.146961 21.951526 104.287138 -0.000000 0.335831 0.463595 -0.381824
0.185000 82.245463 147.030078 -0.000000 0.117042 0.192825 -0.146968 21.907979 104.138136 -0.000000 0.335824 0.463671 -0.381821
0.190000 82.086863 146.981438 -0.000000 0.117038 0.192834 -0.146967 21.737398 103.977443 -0.000000 0.335816 0.463747 -0.381814
0.195000 81.956158 146.927370 -0.000000 0.117027 0.192832 -0.146971 21.518925 103.790124 -0.000000 0.335804 0.463825 -0.381820
0.200000 82.078365 146.774239 -0.000000 0.117011 0.192829 -0.146969 21.443577 103.564943 -0.000000 0.335809 0.463902 -0.381835
0.205000 82.103759 146.728689 -0.000000 0.117008 0.192824 -0.146977 21.292670 103.368976 -0.000000 0.335810 0.463980 -0.381827
0.210000 82.029539 146.796823 -0.000000 0.117011 0.192825 -0.146969 21.080286 103.215959 -0.000000 0.335808 0.464059 -0.381834
0.215000 81.931190 146.948410 -0.000000 0.116996 0.192822 -0.146970 20.867598 103.112998 -0.000000 0.335792 0.464138 -0.381839
0.220000 81.901735 147.149666 -0.000000 0.117000 0.192805 -0.146971 20.692187 103.049668 -0.000000 0.335800 0.464217 -0.381839
0.225000 82.304683 147.195467 -0.000000 0.116996 0.192825 -0.146970 20.761421 102.954715 -0.000000 0.335808 0.464296 -0.381834
0.230000 82.499399 147.395775 -0.000000 0.116987 0.192821 -0.146978 20.626480 102.898160 -0.000000 0.335804 0.464375 -0.381834
0.235000 82.707898 147.553111 -0.000000 0.116987 0.192823 -0.146978 20.503968 102.845999 -0.000000 0.335799 0.464455 -0.381836
0.240000 83.152558 147.488501 -0.000000 0.116992 0.192822 -0.146972 20.625564 102.780400 -0.000000 0.335793 0.464534 -0.381838
0.245000 83.010731 147.654019 -0.000000 0.116984 0.192822 -0.146974 20.460943 102.830620 -0.000000 0.335788 0.464613 -0.381841
0.250000 82.960032 147.686140 -0.000000 0.116983 0.192825 -0.146971 20.465497 102.899567 -0.000000 0.335786 0.464692 -0.381844
0.255000 83.068186 147.568884 -0.000000 0.117096 0.192823 -0.147030 20.638000 102.959938 -0.000000 0.335788 0.464771 -0.381845
0.260000 83.005959 147.501423 -0.000000 0.117082 0.192822 -0.147013 20.717052 103.043916 -0.000000 0.335794 0.464849 -0.381844
0.265000 82.894923 147.425908 -0.000000 0.117099 0.192828 -0.147036 20.771464 103.126010 -0.000000 0.335808 0.464926 -0.381840
0.270000 82.807299 147.323411 -0.000000 0.117000 0.192830 -0.146979 20.824859 103.184070 -0.000000 0.335796 0.465004 -0.381844
0.275000 82.772103 147.212251 -0.000000 0.116992 0.192841 -0.146983 20.861139 103.204811 -0.000000 0.335809 0.465080 -0.381839
0.280000 82.482104 147.292923 -0.000000 0.117000 0.192836 -0.146980 20.632350 103.227283 -0.000000 0.335812 0.465156 -0.381841
0.285000 82.577707 147.214722 -0.000000 0.117003 0.192840 -0.146980 20.565177 103.154851 -0.000000 0.335818 0.465231 -0.381843
0.290000 82.491319 147.282674 -0.000000 0.117001 0.192839 -0.146967 20.271205 103.064089 -0.000000 0.335828 0.465305 -0.381842
0.295000 82.309712 147.409331 -0.000000 0.117025 0.192849 -0.146965 19.864093 102.950543 -0.000000 0.335820 0.465378 -0.381848
0.300000 82.456547 147.313118 -0.000000 0.117024 0.192863 -0.146968 19.702546 102.772011 -0.000000 0.335827 0.465450 -0.381844
0.305000 82.361117 147.297923 -0.000000 0.117034 0.192854 -0.146982 19.432662 102.624988 -0.000000 0.335827 0.465521 -0.381844
0.310000 82.491759 147.120931 -0.000000 0.117035 0.192848 -0.146974 19.415103 102.476311 -0.000000 0.335827 0.465591 -0.381844
0.315000 82.294754 147.112776 -0.000000 0.117052 0.192857 -0.146982 19.297368 102.431494 -0.000000 0.335846 0.465660 -0.381842
0.320000 82.430641 146.897964 -0.000000 0.117064 0.192858 -0.146975 19.566582 102.426408 -0.000000 0.335844 0.465727 -0.381840
0.325000 82.309658 146.789794 -0.000000 0.117076 0.192868 -0.146977 19.810473 102.543110 -0.000000 0.335844 0.465793 -0.381840
0.330000 82.212704 146.638284 -0.000000 0.117079 0.192866 -0.146977 20.176390 102.728922 -0.000000 0.335852 0.465857 -0.381839
0.335000 82.057976 146.528580 -0.000000 0.117081 0.192877 -0.146980 20.529852 102.968849 -0.000000 0.335846 0.465920 -0.381841
0.340000 81.886689 146.483141 -0.000000 0.117088 0.192859 -0.146977 20.825923 103.229276 -0.000000 0.335849 0.465981 -0.381832
0.345000 81.782036 146.483391 -0.000000 0.117096 0.192873 -0.146984 21.068930 103.470646 -0.000000 0.335851 0.466040 -0.381827
0.350000 82.026225 146.374784 -0.000000 0.117103 0.192881 -0.146978 21.435255 103.630257 -0.000000 0.335852 0.466098 -0.381823
0.355000 82.262676 146.338680 -0.000000 0.117093 0.192890 -0.146975 21.682250 103.749877 -0.000000 0.335854 0.466154 -0.381821
0.360000 82.465952 146.363133 -0.000000 0.117107 0.192880 -0.146975 21.813127 103.832464 -0.000000 0.335863 0.466207 -0.381816
0.365000 82.505225 146.499536 -0.000000 0.117114 0.192887 -0.146978 21.764048 103.906931 -0.000000 0.335860 0.466259 -0.381825
0.370000 82.591750 146.607296 -0.000000 0.117107 0.192877 -0.146976 21.732448 103.963279 -0.000000 0.335864 0.466308 -0.381830
0.375000 82.596094 146.729417 -0.000000 0.117130 0.192892 -0.146980 21.672516 104.033618 -0.000000 0.335877 0.466355 -0.381831
0.380000 82.831264 146.655413 -0.000000 0.117128 0.192893 -0.146977 21.826047 104.059116 -0.000000 0.335876 0.466400 -0.381831
0.385000 82.818784 146.628124 -0.000000 0.117129 0.192895 -0.146990 21.858316 104.084843 -0.000000 0.335873 0.466443 -0.381828
0.390000 82.653847 146.587931 -0.000000 0.117134 0.192882 -0.146976 21.830959 104.070045 -0.000000 0.335877 0.466483 -0.381832
0.395000 82.741247 146.333915 -0.000000 0.117129 0.192894 -0.146990 22.004748 103.933881 -0.000000 0.335876 0.466521 -0.381831
0.400000 82.222005 146.406003 -0.000000 0.117128 0.192883 -0.146977 21.740520 103.810534 -0.000000 0.335878 0.466556 -0.381831
0.405000 81.874356 146.419031 -0.000000 0.117130 0.192905 -0.146975 21.581436 103.618873 -0.000000 0.335898 0.466588 -0.381818
0.410000 81.899491 146.285395 -0.000000 0.117130 0.192893 -0.146976 21.671330 103.369970 -0.000000 0.335892 0.466617 -0.381816
0.415000 81.633740 146.362555 -0.000000 0.117128 0.192909 -0.146970 21.546928 103.190924 -0.000000 0.335885 0.466644 -0.381824
0.420000 81.523028 146.371652 -0.000000 0.117133 0.192891 -0.146975 21.525141 103.033725 -0.000000 0.335901 0.466668 -0.381820
0.425000 81.625815 146.265843 -0.000000 0.117137 0.192907 -0.146973 21.623188 102.893240 -0.000000 0.335908 0.466688 -0.381815
0.430000 81.445787 146.325589 -0.000000 0.117132 0.192906 -0.146992 21.455223 102.834888 -0.000000 0.335921 0.466706 -0.381801
